<?xml version="1.0" standalone="no"?>
<!DOCTYPE svg PUBLIC "-//W3C//DTD SVG 20010904//EN"
 "http://www.w3.org/TR/2001/REC-SVG-20010904/DTD/svg10.dtd">
<svg version="1.0" xmlns="http://www.w3.org/2000/svg"
 width="868.000000pt" height="1156.000000pt" viewBox="0 0 868.000000 1156.000000"
 preserveAspectRatio="xMidYMid meet">

<g transform="translate(0.000000,1156.000000) scale(0.100000,-0.100000)"
fill="#000000" stroke="none">
<path d="M5020 11520 c0 -29 -4 -40 -15 -40 -11 0 -15 -11 -15 -40 0 -22 -4
-40 -9 -40 -5 0 -12 -35 -16 -77 -4 -43 -10 -80 -14 -83 -10 -7 -41 -270 -41
-342 0 -50 -3 -58 -18 -58 -16 0 -20 -15 -31 -117 -9 -77 -20 -132 -33 -158
-13 -25 -16 -41 -9 -43 16 -5 14 -23 -5 -43 -8 -9 -19 -41 -23 -71 -5 -29 -16
-70 -25 -90 -14 -33 -14 -38 -1 -38 8 0 15 -9 15 -21 0 -16 -4 -19 -20 -14
-17 6 -20 2 -20 -29 0 -19 -4 -38 -10 -41 -5 -3 -10 -15 -10 -25 0 -11 -18
-38 -40 -61 -27 -28 -36 -45 -29 -50 8 -5 3 -16 -15 -35 -14 -16 -24 -36 -21
-44 6 -17 -27 -52 -60 -65 -13 -5 -15 -9 -7 -12 6 -3 12 -8 12 -13 0 -10 -58
-70 -68 -70 -11 -1 -44 -50 -51 -78 -4 -14 -20 -34 -37 -43 -19 -11 -28 -23
-27 -37 2 -13 -10 -31 -29 -47 -22 -19 -28 -29 -19 -34 9 -6 7 -16 -8 -42 -12
-19 -30 -53 -42 -76 -11 -24 -24 -43 -29 -43 -6 0 -10 -9 -10 -19 0 -11 -4
-22 -10 -26 -19 -12 -70 -127 -70 -160 0 -24 -5 -35 -15 -35 -17 0 -71 -54
-90 -91 -13 -24 -12 -25 30 -38 24 -7 57 -10 73 -7 31 7 100 -14 70 -21 -9 -2
-23 -22 -32 -44 -9 -21 -20 -39 -26 -39 -5 0 -10 -18 -10 -40 0 -22 -4 -40 -9
-40 -15 0 -41 -77 -41 -120 0 -29 4 -40 15 -40 23 0 18 -16 -15 -43 -16 -14
-30 -29 -30 -34 0 -5 -23 -16 -51 -26 -50 -18 -50 -19 -44 -54 4 -29 1 -41
-17 -60 -12 -12 -27 -23 -35 -23 -7 0 -13 -3 -13 -8 0 -9 -60 -30 -125 -44
-27 -5 -56 -12 -63 -14 -64 -19 -404 -88 -542 -109 -52 -9 -126 -20 -165 -25
-83 -12 -388 -61 -565 -91 -69 -12 -156 -25 -195 -30 -38 -4 -124 -15 -190
-24 -66 -8 -155 -18 -198 -22 -50 -4 -81 -11 -84 -19 -6 -17 -129 -15 -163 3
-21 11 -25 11 -28 -2 -4 -17 -35 -18 -119 -6 -29 4 -57 3 -61 -1 -14 -14 -222
13 -222 29 0 17 -77 18 -82 1 -5 -15 -391 6 -396 22 -5 13 -82 13 -82 0 0 -5
-18 -10 -40 -10 -29 0 -40 4 -40 15 0 23 -127 25 -143 2 -6 -9 -10 -9 -14 1
-2 6 -12 12 -22 12 -9 0 -22 5 -28 11 -6 6 -68 11 -153 13 -141 2 -143 2 -166
29 -13 15 -26 27 -29 27 -3 0 -5 -115 -5 -256 l0 -255 68 5 c37 2 93 9 124 16
75 14 215 21 197 8 -9 -6 -5 -7 12 -3 17 4 30 1 38 -9 8 -9 20 -16 27 -16 15
0 74 -52 74 -64 0 -14 26 -33 63 -45 20 -7 37 -16 37 -20 0 -4 18 -17 40 -30
22 -12 40 -29 40 -37 0 -8 9 -14 19 -14 10 0 21 -7 25 -15 3 -8 12 -15 21 -15
8 0 15 -3 15 -8 0 -4 10 -12 22 -17 13 -6 23 -14 23 -20 0 -20 15 -32 39 -33
14 0 46 -11 72 -26 25 -14 55 -26 65 -26 12 0 19 -7 19 -18 0 -12 17 -27 47
-42 l48 -24 -140 -27 c-77 -15 -169 -32 -205 -39 -36 -6 -77 -13 -91 -16 -22
-4 -25 -9 -21 -33 3 -21 11 -30 27 -34 13 -2 28 -1 32 3 4 4 80 17 168 29 201
28 550 82 1095 171 234 38 520 83 635 100 116 17 218 33 228 36 24 7 47 -13
47 -42 0 -12 5 -26 11 -30 9 -5 10 6 5 37 l-7 44 122 18 c67 10 131 23 142 28
10 6 67 15 125 20 119 10 339 46 363 60 9 4 33 8 55 7 40 -1 618 81 754 107
41 8 194 35 340 60 146 25 274 47 286 50 16 4 19 10 16 39 -4 31 -2 34 16 29
22 -5 98 6 492 78 255 46 351 66 324 68 -6 1 -36 -4 -65 -9 -63 -12 -281 -45
-356 -54 -46 -6 -51 -4 -48 11 2 10 4 23 4 28 1 6 6 17 11 25 9 13 11 13 21 0
8 -11 9 -5 5 27 -5 37 -3 44 16 54 32 16 58 45 58 64 0 8 4 15 8 15 12 0 32
46 32 74 0 13 9 35 20 49 11 14 20 29 20 34 0 4 9 14 20 21 11 7 20 18 20 25
0 7 10 23 23 34 12 11 29 30 37 43 31 48 96 123 115 134 11 6 22 13 25 16 3 3
26 18 52 33 56 32 80 38 338 78 107 16 222 34 255 39 33 6 110 15 170 21 70 7
114 16 121 25 6 7 14 11 17 7 4 -3 7 6 7 21 0 18 -4 25 -12 20 -7 -4 -8 -3 -4
5 4 6 0 55 -9 107 -11 60 -21 91 -26 83 -5 -9 -10 1 -15 29 -4 23 -10 45 -15
48 -5 2 -27 -5 -51 -17 -23 -12 -67 -30 -97 -40 -30 -11 -62 -26 -71 -34 -15
-14 -18 -14 -30 0 -14 17 -70 21 -70 5 0 -6 -15 -8 -40 -4 -30 5 -40 3 -40 -7
0 -8 -5 -6 -13 5 -12 17 -14 17 -20 2 -11 -28 -24 -18 -31 24 -3 23 -10 39
-14 36 -12 -7 -25 6 -47 47 -32 61 -49 49 -41 -30 6 -66 5 -67 -9 -34 -8 18
-15 50 -15 70 -1 31 -2 34 -13 19 -11 -13 -12 1 -9 78 3 65 1 94 -7 94 -6 0
-11 12 -12 28 0 23 -2 24 -8 8 -7 -18 -8 -18 -14 -2 -4 10 -7 27 -7 38 0 11
-8 33 -17 49 -16 26 -16 31 -3 40 13 9 13 10 -1 6 -12 -4 -18 3 -23 26 -3 18
-10 51 -14 74 -15 71 3 154 59 271 154 321 239 491 249 497 5 3 10 13 10 22 0
8 16 49 36 91 85 178 87 194 48 407 -46 257 -95 557 -92 567 2 6 17 -57 32
-138 90 -470 117 -604 132 -646 8 -26 12 -53 8 -59 -4 -8 -3 -9 4 -5 8 5 12
-3 12 -23 0 -34 15 -49 24 -25 3 9 -8 95 -25 191 -16 96 -28 177 -26 179 2 3
17 -61 33 -141 16 -81 30 -142 32 -137 2 6 -6 61 -18 122 -12 62 -19 114 -17
116 2 3 12 -35 22 -83 18 -92 34 -137 35 -96 0 12 5 23 11 25 9 3 3 58 -21
192 -17 103 -30 189 -28 191 2 2 21 -85 43 -193 30 -151 41 -190 46 -167 4 17
7 26 8 20 1 -9 21 20 37 55 4 8 40 65 80 126 41 62 74 117 74 123 0 6 4 11 8
11 5 0 14 10 20 23 6 12 22 38 34 58 38 58 67 103 78 119 50 71 133 221 137
248 l6 32 -1077 0 -1076 0 0 -40z m1367 -52 c-3 -8 -6 -5 -6 6 -1 11 2 17 5
13 3 -3 4 -12 1 -19z m210 -330 c-3 -8 -6 -5 -6 6 -1 11 2 17 5 13 3 -3 4 -12
1 -19z m-50 -190 c-3 -8 -6 -5 -6 6 -1 11 2 17 5 13 3 -3 4 -12 1 -19z m-1782
-1068 c-3 -5 -16 -10 -28 -9 -21 0 -21 1 -2 9 28 12 37 12 30 0z m-718 -1568
c6 -4 17 -30 23 -57 6 -28 16 -59 21 -70 5 -11 10 -36 13 -55 2 -19 8 -46 14
-60 12 -28 76 -297 77 -320 0 -12 15 -15 84 -12 47 1 83 0 80 -2 -6 -6 -805
-146 -949 -166 -85 -11 -214 -31 -490 -74 -124 -20 -326 -51 -450 -71 -124
-19 -234 -37 -245 -39 -22 -6 -409 -56 -427 -56 -27 0 3 10 76 25 79 17 125
39 126 63 0 6 -6 12 -14 12 -18 0 -28 15 -32 49 -1 14 -10 74 -20 134 -15 93
-20 107 -36 107 -28 0 -57 39 -58 77 0 34 -39 83 -65 83 -11 0 -15 12 -15 40
0 39 1 40 35 40 18 0 60 7 92 16 174 48 324 79 523 109 96 15 315 50 485 77
329 53 389 62 500 78 39 5 174 25 300 44 230 34 330 42 352 28z m-2320 -998
c-3 -3 -12 -4 -19 -1 -8 3 -5 6 6 6 11 1 17 -2 13 -5z m-420 -50 c-3 -3 -12
-4 -19 -1 -8 3 -5 6 6 6 11 1 17 -2 13 -5z"/>
<path d="M6511 10694 c0 -11 3 -14 6 -6 3 7 2 16 -1 19 -3 4 -6 -2 -5 -13z"/>
<path d="M6521 10644 c0 -11 3 -14 6 -6 3 7 2 16 -1 19 -3 4 -6 -2 -5 -13z"/>
<path d="M6622 10600 c0 -14 2 -19 5 -12 2 6 2 18 0 25 -3 6 -5 1 -5 -13z"/>
<path d="M6632 10540 c0 -14 2 -19 5 -12 2 6 2 18 0 25 -3 6 -5 1 -5 -13z"/>
<path d="M6642 10490 c0 -14 2 -19 5 -12 2 6 2 18 0 25 -3 6 -5 1 -5 -13z"/>
<path d="M6651 10434 c0 -11 3 -14 6 -6 3 7 2 16 -1 19 -3 4 -6 -2 -5 -13z"/>
<path d="M6662 10380 c0 -14 2 -19 5 -12 2 6 2 18 0 25 -3 6 -5 1 -5 -13z"/>
<path d="M6671 10334 c0 -11 3 -14 6 -6 3 7 2 16 -1 19 -3 4 -6 -2 -5 -13z"/>
<path d="M6682 10280 c0 -14 2 -19 5 -12 2 6 2 18 0 25 -3 6 -5 1 -5 -13z"/>
<path d="M6692 10230 c0 -14 2 -19 5 -12 2 6 2 18 0 25 -3 6 -5 1 -5 -13z"/>
<path d="M6701 10184 c0 -11 3 -14 6 -6 3 7 2 16 -1 19 -3 4 -6 -2 -5 -13z"/>
<path d="M6712 10130 c0 -14 2 -19 5 -12 2 6 2 18 0 25 -3 6 -5 1 -5 -13z"/>
<path d="M6721 10074 c0 -11 3 -14 6 -6 3 7 2 16 -1 19 -3 4 -6 -2 -5 -13z"/>
<path d="M6731 10024 c0 -11 3 -14 6 -6 3 7 2 16 -1 19 -3 4 -6 -2 -5 -13z"/>
<path d="M8570 9998 c-52 -21 -122 -50 -155 -63 -33 -13 -127 -50 -210 -82
-82 -32 -177 -67 -210 -77 -33 -11 -79 -27 -102 -38 -24 -10 -48 -18 -54 -18
-27 0 -122 -55 -131 -76 -24 -52 88 -628 143 -736 17 -33 23 -37 50 -33 17 2
37 9 45 16 9 7 18 8 27 2 15 -12 107 -5 107 8 0 5 36 9 80 9 49 0 80 4 80 10
0 8 33 9 101 4 96 -7 101 -6 116 16 11 15 18 18 23 10 4 -7 12 0 20 19 15 38
24 39 39 3 10 -25 15 -27 56 -24 36 3 45 1 45 -12 0 -9 8 -16 20 -16 20 0 20
7 20 560 0 308 -3 560 -7 559 -5 0 -51 -19 -103 -41z"/>
<path d="M6741 9974 c0 -11 3 -14 6 -6 3 7 2 16 -1 19 -3 4 -6 -2 -5 -13z"/>
<path d="M6751 9914 c0 -11 3 -14 6 -6 3 7 2 16 -1 19 -3 4 -6 -2 -5 -13z"/>
<path d="M6761 9864 c0 -11 3 -14 6 -6 3 7 2 16 -1 19 -3 4 -6 -2 -5 -13z"/>
<path d="M6772 9820 c0 -14 2 -19 5 -12 2 6 2 18 0 25 -3 6 -5 1 -5 -13z"/>
<path d="M6781 9764 c0 -11 3 -14 6 -6 3 7 2 16 -1 19 -3 4 -6 -2 -5 -13z"/>
<path d="M6792 9715 c0 -16 2 -22 5 -12 2 9 2 23 0 30 -3 6 -5 -1 -5 -18z"/>
<path d="M6802 9660 c0 -14 2 -19 5 -12 2 6 2 18 0 25 -3 6 -5 1 -5 -13z"/>
<path d="M6812 9610 c0 -14 2 -19 5 -12 2 6 2 18 0 25 -3 6 -5 1 -5 -13z"/>
<path d="M7563 9570 c-52 -18 -176 -79 -268 -131 -27 -15 -66 -35 -84 -44 -19
-9 -42 -22 -50 -30 -43 -40 -81 -65 -100 -65 -13 0 -21 -6 -21 -17 0 -15 -2
-16 -10 -3 -8 13 -10 13 -10 -1 0 -9 -6 -22 -14 -28 -9 -8 -13 -26 -10 -54 3
-37 2 -38 -5 -12 -19 68 -9 -10 21 -168 38 -195 28 -185 165 -167 193 27 222
30 324 39 157 13 216 28 223 57 10 38 -4 211 -24 309 -10 50 -28 140 -40 200
-12 61 -27 115 -33 121 -9 9 -25 7 -64 -6z"/>
<path d="M6822 9560 c0 -14 2 -19 5 -12 2 6 2 18 0 25 -3 6 -5 1 -5 -13z"/>
<path d="M6801 9524 c0 -11 3 -14 6 -6 3 7 2 16 -1 19 -3 4 -6 -2 -5 -13z"/>
<path d="M6831 9521 c-1 -12 76 -434 99 -541 5 -25 43 -232 85 -460 91 -499
106 -578 144 -785 53 -283 63 -346 59 -350 -3 -3 -24 91 -47 208 -24 116 -49
235 -57 262 l-14 50 5 -70 c5 -66 70 -455 136 -815 17 -91 41 -226 54 -300 13
-74 40 -223 59 -330 62 -338 37 -241 -53 210 -48 239 -91 446 -95 460 -29 104
-27 101 -64 98 -33 -3 -35 0 -53 44 -10 25 -29 123 -43 217 -14 94 -30 179
-36 190 -12 23 -40 141 -45 191 -5 48 -43 209 -44 187 -1 -10 4 -49 10 -88 16
-107 4 -106 -15 1 -19 105 -41 160 -31 75 4 -27 11 -65 17 -83 5 -18 7 -43 4
-56 -4 -18 39 -300 74 -486 31 -160 39 -239 20 -210 -5 8 -16 45 -26 83 -15
63 -18 67 -33 53 -9 -9 -50 -20 -90 -26 -77 -11 -228 -64 -248 -87 -9 -12 -12
-12 -15 4 -2 10 -4 -12 -3 -49 0 -36 -3 -69 -6 -73 -4 -3 -22 -6 -40 -6 -37 0
-71 -7 -198 -39 -47 -12 -109 -23 -138 -24 l-53 -1 6 -35 c3 -19 9 -55 14 -80
5 -25 11 -70 14 -100 5 -55 5 -55 -11 15 -32 141 -45 182 -54 160 -4 -11 -8
-14 -8 -7 -1 9 -6 10 -20 2 -11 -5 -31 -10 -46 -10 -14 0 -60 -9 -102 -20 -42
-12 -106 -25 -143 -29 -43 -6 -81 -18 -107 -34 -22 -14 -60 -29 -84 -32 -68
-9 -83 -12 -99 -17 -69 -23 -89 -28 -103 -28 -9 0 -17 -4 -17 -10 0 -24 -39
-8 -54 23 l-17 32 6 -50 c4 -27 19 -122 35 -210 46 -259 92 -546 88 -551 -5
-4 -98 491 -98 519 0 10 -3 16 -8 13 -4 -2 -8 12 -8 33 -2 62 -35 229 -50 248
-13 17 -15 17 -30 -2 -8 -11 -19 -26 -23 -32 -7 -14 -72 -30 -168 -42 -35 -5
-69 -14 -77 -20 -19 -16 -112 -10 -109 7 4 19 -15 14 -20 -5 -3 -14 -6 -12
-11 9 -4 14 -16 28 -26 31 -16 4 -19 14 -19 58 1 30 -4 67 -10 83 -9 23 -9 32
4 46 18 20 19 32 4 47 -9 9 -25 1 -64 -33 -51 -43 -75 -54 -75 -33 0 5 -4 8
-9 4 -5 -3 -12 -1 -16 5 -3 5 1 10 9 10 22 0 26 13 8 30 -14 13 -15 12 -8 -5
7 -19 7 -19 -12 0 -11 11 -18 22 -16 24 2 2 -5 11 -14 20 -10 9 -12 12 -5 7 9
-6 13 -3 13 8 0 18 13 20 41 6 11 -7 19 -7 19 -1 0 5 -19 16 -42 24 -24 8 -42
20 -40 27 2 8 -3 10 -13 7 -8 -4 -15 -2 -15 3 0 6 5 10 11 10 8 0 8 5 -1 15
-7 8 -19 15 -27 15 -8 0 -11 5 -7 11 12 19 15 89 4 89 -6 0 -10 -5 -10 -11 0
-5 -5 -7 -12 -3 -8 5 -9 0 -6 -14 4 -12 2 -24 -2 -27 -13 -8 -28 25 -23 46 6
21 -7 25 -24 8 -20 -20 -43 -2 -44 33 l-2 33 -6 -33 -6 -34 -23 32 c-13 17
-21 36 -18 43 2 7 5 4 5 -7 1 -15 4 -16 16 -6 8 7 15 16 15 21 0 5 -7 9 -15 9
-10 0 -15 10 -15 33 0 25 -3 29 -11 17 -8 -12 -9 -10 -7 9 3 22 -2 26 -36 33
-21 5 -41 6 -44 3 -3 -3 3 -5 12 -5 12 0 16 -5 12 -16 -3 -9 -6 -20 -6 -25 0
-15 -30 -10 -36 6 -4 8 -10 15 -16 15 -5 0 -7 -4 -4 -9 4 -5 3 -11 -1 -14 -5
-2 -3 -3 4 -1 20 5 23 -35 2 -41 -10 -3 -21 -15 -24 -26 -7 -22 -21 -25 -28
-6 -3 7 -6 4 -6 -6 -1 -10 4 -28 10 -40 9 -18 9 -20 -2 -9 -19 17 -29 15 -23
-5 5 -17 5 -17 -6 0 -6 9 -22 17 -36 17 -14 0 -24 5 -23 13 1 6 -1 20 -5 29
-6 14 -12 15 -28 7 -15 -8 -24 -7 -36 4 -9 8 -24 17 -32 20 -9 3 -6 6 10 7 23
1 23 2 5 10 -11 5 -14 9 -7 9 6 1 12 5 12 10 0 6 -9 9 -19 8 -10 0 -18 -6 -17
-12 2 -5 1 -7 -1 -2 -3 4 -12 7 -21 7 -14 0 -15 2 -2 10 26 16 5 20 -54 9 -32
-6 -61 -8 -64 -5 -3 3 3 6 12 6 12 0 16 5 12 16 -3 9 -6 19 -7 22 0 4 -5 -2
-10 -13 -8 -17 -9 -15 -5 10 4 26 3 28 -9 12 -10 -14 -14 -15 -19 -5 -3 7 -3
-4 0 -24 7 -42 -3 -98 -17 -98 -5 0 -7 12 -4 28 5 23 4 24 -4 6 -5 -11 -11
-34 -13 -50 -1 -16 -7 -32 -12 -36 -18 -13 16 -38 48 -36 18 1 38 -2 45 -6 23
-15 -41 -35 -80 -26 l-34 8 39 1 c52 1 43 7 -24 14 -31 4 -49 3 -42 -2 8 -4
13 -11 13 -15 -3 -19 1 -25 17 -29 13 -4 11 -5 -5 -6 -13 0 -23 3 -23 8 0 11
-56 32 -64 24 -3 -4 -6 1 -6 10 0 10 8 17 19 17 11 0 23 9 26 21 4 12 12 18
21 15 18 -7 44 20 44 45 0 11 -7 22 -15 25 -8 4 -15 14 -15 24 0 23 25 82 31
75 3 -3 5 3 4 13 0 9 -5 17 -10 17 -6 0 -9 -6 -9 -12 2 -17 -2 -16 -31 3 -14
9 -25 12 -25 6 0 -6 4 -14 10 -17 16 -10 12 -28 -4 -22 -11 4 -13 1 -9 -10 4
-9 2 -14 -3 -10 -6 3 -9 -7 -8 -24 1 -20 -3 -32 -14 -37 -28 -10 -52 -36 -52
-55 0 -11 -16 -35 -35 -54 -23 -23 -35 -30 -35 -20 0 9 5 19 11 22 6 4 8 14 5
22 -3 8 -2 12 3 9 4 -3 13 6 20 20 16 37 13 42 -9 15 -11 -13 -20 -20 -20 -16
0 3 -7 0 -15 -9 -9 -8 -12 -22 -8 -32 5 -13 3 -16 -10 -11 -10 4 -22 -1 -31
-14 l-14 -20 -20 21 c-11 12 -25 19 -31 15 -6 -3 -11 -2 -11 3 0 6 -9 8 -20 5
-26 -7 -15 -23 16 -23 14 0 27 -7 31 -15 8 -23 -5 -31 -27 -17 -12 7 -20 8
-20 2 0 -5 5 -10 10 -10 6 0 10 -6 10 -14 0 -18 -80 -12 -92 6 -5 9 -8 8 -8
-4 0 -10 7 -18 15 -18 8 0 15 -5 15 -11 0 -7 -10 -9 -25 -7 -14 3 -30 -1 -36
-8 -16 -19 -46 -17 -58 4 -8 13 -10 10 -9 -18 1 -19 3 -29 5 -22 8 22 20 12
15 -13 -10 -53 -55 -19 -54 40 1 15 -1 16 -4 4 -3 -9 -15 -19 -28 -21 -22 -4
-22 -3 -9 24 8 15 23 34 34 42 15 10 17 15 7 19 -10 4 -10 6 0 6 7 1 12 16 12
42 0 24 -4 38 -10 34 -5 -3 -10 -16 -10 -28 -1 -34 -25 -60 -50 -52 -11 4 -19
3 -18 -2 2 -5 -9 -22 -24 -38 -18 -19 -28 -24 -28 -15 0 30 -35 -21 -36 -53
-1 -18 -2 -41 -3 -53 0 -12 -11 -26 -23 -32 -13 -6 -17 -11 -10 -11 6 -1 12
-6 12 -12 0 -6 -7 -8 -16 -5 -11 4 -15 2 -11 -8 3 -8 -2 -16 -14 -19 -10 -3
-19 -1 -19 4 0 5 -4 9 -9 9 -4 0 -7 -31 -5 -70 3 -62 1 -71 -18 -81 -17 -9
-18 -13 -7 -20 10 -6 10 -9 2 -9 -7 0 -20 -17 -28 -37 -9 -21 -19 -40 -23 -43
-22 -16 -49 -110 -31 -110 5 0 9 14 9 30 0 17 5 30 10 30 6 0 10 -7 10 -17 0
-15 1 -15 19 1 10 9 35 19 55 23 19 3 33 9 30 14 -3 5 0 9 5 9 6 0 11 6 11 13
0 12 53 48 79 53 8 2 25 5 38 9 13 3 23 1 23 -5 0 -5 11 -10 25 -10 14 0 25
-5 25 -11 0 -7 12 0 26 15 30 29 40 32 47 14 3 -10 7 -10 20 1 15 12 18 10 26
-10 5 -13 10 -18 10 -11 1 14 37 17 45 3 3 -4 23 -11 44 -15 22 -3 44 -12 51
-19 9 -11 32 -10 138 9 115 21 132 22 168 9 22 -7 52 -16 68 -19 23 -6 27 -11
27 -40 0 -30 -4 -35 -30 -41 -18 -4 -27 -11 -24 -17 5 -7 -2 -9 -20 -4 -18 4
-25 3 -21 -4 3 -5 16 -10 28 -10 20 0 19 -2 -8 -20 -16 -11 -36 -18 -43 -15
-16 6 -55 -32 -46 -46 4 -8 0 -7 -14 0 -11 6 -29 11 -39 11 -12 -1 -8 -5 12
-15 68 -31 -4 -11 -225 64 -284 95 -290 96 -345 80 l-44 -13 30 -18 c16 -10
40 -18 53 -18 12 0 60 -13 106 -30 88 -32 105 -35 96 -21 -4 5 -1 11 6 13 7 3
5 7 -6 11 -10 4 -15 3 -11 -3 10 -16 -41 -11 -55 5 -7 8 -9 15 -4 15 4 0 -1 7
-12 14 -10 8 20 1 68 -17 47 -17 84 -36 81 -41 -4 -5 -1 -6 6 -2 15 10 82 -15
74 -27 -3 -6 -1 -7 6 -3 15 10 83 -13 76 -25 -4 -5 5 -5 20 1 33 13 38 13 30
0 -6 -9 35 -16 60 -10 31 7 48 9 38 4 -7 -3 -9 -12 -6 -20 8 -22 -19 -26 -60
-9 -50 21 -55 19 -21 -7 61 -48 84 -72 84 -89 0 -10 7 -22 15 -26 13 -8 14
-17 4 -63 -22 -106 -27 -125 -28 -106 0 11 -4 17 -7 13 -3 -3 -1 -21 5 -40 13
-37 50 -77 96 -102 l30 -17 -34 6 c-31 6 -32 5 -20 -11 24 -31 34 -39 59 -54
23 -13 17 -14 -80 -20 -84 -4 -67 -5 85 -6 105 0 182 1 172 4 -12 3 -15 11
-11 29 4 16 2 24 -7 24 -8 1 2 7 21 13 19 7 64 32 99 55 35 24 66 41 68 38 5
-5 -89 -76 -132 -99 -16 -9 -25 -16 -20 -16 13 0 55 24 137 78 59 40 65 46 50
57 -13 10 -15 17 -6 30 6 10 16 20 24 22 7 3 10 0 6 -6 -7 -11 31 -28 41 -18
4 3 1 6 -6 6 -8 0 -9 5 -2 18 7 13 6 23 -2 31 -9 10 -7 12 13 9 20 -2 25 -9
25 -33 0 -16 3 -32 7 -35 10 -8 78 -167 78 -184 0 -10 -9 -16 -22 -17 -13 0 2
-6 34 -13 56 -12 88 -30 88 -48 0 -5 -15 0 -34 11 -33 21 -43 21 -422 19 -224
-2 -389 -7 -389 -12 0 -5 38 -8 85 -7 136 4 373 -10 362 -21 -6 -6 -85 -12
-178 -16 -156 -5 -168 -4 -181 14 -14 19 -15 19 -29 -1 -12 -16 -18 -18 -34
-7 -12 7 -20 8 -20 2 0 -14 -27 -13 -36 1 -3 6 0 15 7 20 12 7 11 9 -1 9 -8 0
-25 -8 -36 -18 -40 -31 -53 -80 -56 -196 l-3 -109 -54 -19 c-36 -12 -57 -15
-61 -8 -4 6 -14 3 -24 -9 -14 -15 -23 -18 -37 -11 -10 6 -27 10 -38 10 -13 0
-26 12 -36 30 -9 17 -19 30 -24 30 -5 0 -14 14 -21 30 -7 17 -16 30 -21 30 -5
0 -9 7 -9 16 0 10 -6 14 -15 10 -8 -3 -15 0 -15 7 0 8 -3 8 -9 -2 -5 -7 -14
-10 -20 -7 -6 4 -13 1 -15 -6 -33 -116 -52 -157 -73 -159 -12 0 -60 -106 -75
-161 -11 -44 -11 -49 11 -72 14 -14 20 -30 16 -37 -5 -8 -4 -10 4 -5 6 4 14 0
18 -11 3 -10 15 -31 26 -47 l20 -28 -21 11 c-12 7 -22 8 -22 2 0 -9 47 -44
260 -198 89 -64 100 -74 70 -68 -19 3 -58 18 -86 32 -63 30 -63 30 -213 -87
-84 -66 -106 -79 -116 -68 -6 7 -52 58 -100 113 -250 282 -416 411 -546 422
l-57 6 -72 -73 c-55 -55 -74 -69 -81 -59 -5 8 -9 19 -9 25 0 13 49 59 73 67
18 7 24 27 8 27 -5 0 -17 -7 -26 -16 -26 -26 -29 -8 -6 31 11 20 21 42 21 50
0 23 12 23 105 0 49 -12 94 -21 100 -19 14 6 56 75 99 160 19 39 42 74 50 77
8 3 29 2 48 -3 18 -4 54 -11 80 -14 47 -5 49 -5 71 32 34 52 111 185 116 197
2 5 21 39 41 75 39 68 80 184 80 228 0 17 -15 39 -45 69 -25 23 -45 47 -45 53
0 5 -4 10 -8 10 -29 0 -36 93 -11 142 7 13 5 16 -10 15 -12 -1 -17 -7 -14 -22
2 -11 1 -15 -2 -10 -7 14 -112 9 -230 -10 -49 -8 -103 -16 -120 -18 -16 -3
-70 -13 -120 -22 -49 -9 -112 -21 -140 -26 -27 -4 -61 -13 -75 -18 -14 -5 -47
-12 -75 -15 -27 -3 -75 -10 -105 -16 -182 -32 -474 -70 -577 -75 -39 -2 -76
-6 -81 -9 -6 -3 -69 -9 -142 -12 -159 -6 -185 1 -201 61 -25 89 -28 91 -26 17
2 -57 -1 -71 -11 -67 -11 4 -12 -4 -8 -32 43 -284 110 -796 101 -778 -4 9 -67
334 -100 520 -8 44 -21 104 -30 133 -18 59 -12 57 -155 53 -111 -4 -210 -19
-227 -36 -18 -18 -49 -20 -56 -2 -4 8 -8 8 -14 2 -4 -5 -57 -11 -117 -13 -61
-2 -118 -8 -127 -13 -10 -5 -40 -9 -68 -9 l-51 0 0 -2970 c0 -2822 1 -2970 18
-2970 9 0 28 17 42 37 14 20 60 80 104 132 43 53 101 126 129 164 27 37 53 67
56 67 3 0 15 -18 25 -40 16 -32 17 -45 8 -65 -9 -19 -106 -153 -205 -283 -8
-9 843 -12 4247 -12 l4256 0 0 3816 0 3816 -42 -7 c-24 -4 -56 -13 -73 -21
-27 -12 -293 -86 -375 -104 -19 -4 -41 -9 -49 -11 -18 -5 -58 75 -71 142 -11
58 -12 141 -1 179 7 26 2 25 256 64 50 8 119 21 156 30 36 8 92 17 125 20 32
2 62 5 67 5 4 1 7 44 7 96 l0 95 -39 0 c-22 0 -44 -6 -51 -15 -7 -8 -23 -15
-36 -15 -14 0 -50 -9 -82 -20 -31 -12 -75 -25 -97 -30 -43 -10 -155 -40 -245
-66 -30 -9 -59 -23 -65 -31 -9 -12 -14 -8 -30 21 -11 20 -22 36 -26 36 -25 0
-12 -154 27 -305 19 -74 38 -277 30 -311 -6 -22 -11 -25 -36 -19 -16 3 -53 0
-82 -8 -29 -9 -73 -20 -98 -26 -25 -6 -135 -35 -245 -65 -110 -30 -215 -56
-234 -58 -33 -3 -35 -1 -52 50 -10 29 -25 105 -34 170 -15 108 -53 277 -61
269 -11 -10 1 -141 22 -252 4 -16 4 -28 1 -25 -7 6 -81 377 -158 790 -111 593
-257 1333 -258 1311z m86 -1723 c-3 -8 -6 -5 -6 6 -1 11 2 17 5 13 3 -3 4 -12
1 -19z m30 -30 c-3 -7 -5 -2 -5 12 0 14 2 19 5 13 2 -7 2 -19 0 -25z m10 -40
c-3 -8 -6 -5 -6 6 -1 11 2 17 5 13 3 -3 4 -12 1 -19z m-2623 -371 c-4 -41 -5
-42 -14 -22 -7 16 -9 17 -9 3 -1 -10 -9 -16 -21 -15 -26 2 -25 5 5 29 14 11
25 27 25 36 0 13 2 14 8 4 5 -7 7 -23 6 -35z m2904 -67 c0 -22 -1 -22 -8 5 -4
17 -8 41 -8 55 0 22 1 22 8 -5 4 -16 8 -41 8 -55z m-3521 28 c-3 -8 -6 -5 -6
6 -1 11 2 17 5 13 3 -3 4 -12 1 -19z m247 -17 l29 -20 -41 6 c-28 4 -42 2 -42
-6 0 -6 -12 -10 -27 -10 -22 1 -23 3 -8 6 11 3 26 14 33 24 16 24 20 23 56 0z
m-114 -35 c0 -8 6 -17 13 -19 7 -3 5 -6 -5 -6 -10 -1 -18 4 -18 9 0 6 -11 8
-25 6 -31 -6 -32 2 -2 14 31 12 37 12 37 -4z m120 -10 c0 -6 -4 -17 -8 -24 -6
-9 -12 -6 -20 12 -6 13 -8 26 -5 29 8 9 33 -4 33 -17z m325 14 c-27 -12 -43
-12 -25 0 8 5 22 9 30 9 10 0 8 -3 -5 -9z m65 -26 c0 -2 -21 -4 -47 -3 -37 1
-42 3 -23 8 24 7 70 3 70 -5z m2887 -21 c-3 -10 -5 -4 -5 12 0 17 2 24 5 18 2
-7 2 -21 0 -30z m-3317 10 c0 -10 -4 -14 -8 -8 -4 6 -11 13 -16 18 -5 4 -2 7
7 7 10 0 17 -8 17 -17z m327 -29 c-7 -7 -37 7 -37 17 0 6 9 5 21 -1 11 -7 19
-14 16 -16z m113 22 c0 -9 -30 -14 -35 -6 -4 6 3 10 14 10 12 0 21 -2 21 -4z
m-362 -51 c-3 -3 -13 7 -23 22 l-17 28 23 -22 c12 -12 20 -25 17 -28z m449 -2
c-3 -10 -5 -4 -5 12 0 17 2 24 5 18 2 -7 2 -21 0 -30z m-927 -38 c0 -8 -4 -15
-10 -15 -5 0 -7 7 -4 15 4 8 8 15 10 15 2 0 4 -7 4 -15z m3737 -7 c-3 -8 -6
-5 -6 6 -1 11 2 17 5 13 3 -3 4 -12 1 -19z m-3905 -20 c-7 -7 -12 -8 -12 -2 0
14 12 26 19 19 2 -3 -1 -11 -7 -17z m355 -13 c4 -1 22 -8 38 -17 l30 -17 -27
-1 c-14 0 -29 -6 -31 -12 -3 -7 -6 -2 -7 12 -1 25 -1 24 -14 -5 l-13 -30 -13
27 c-7 15 -10 38 -6 53 7 26 8 26 21 9 7 -11 17 -19 22 -19z m-87 14 c3 -1 8
-1 13 0 4 0 7 -2 8 -6 0 -5 2 -18 5 -30 5 -26 1 -28 -26 -11 -16 10 -24 10
-41 0 -16 -10 -19 -10 -13 -1 5 9 -5 11 -42 7 -27 -3 -40 -4 -30 -1 15 4 16 7
5 14 -10 6 -5 9 16 10 25 0 27 2 10 8 -19 8 -18 9 5 13 22 3 77 2 90 -3z m390
1 c13 -8 13 -10 -2 -10 -9 0 -20 5 -23 10 -8 13 5 13 25 0z m-920 -29 c0 -6
-4 -13 -10 -16 -5 -3 -10 1 -10 9 0 9 5 16 10 16 6 0 10 -4 10 -9z m900 -26
c0 -5 -5 -3 -10 5 -5 8 -10 20 -10 25 0 6 5 3 10 -5 5 -8 10 -19 10 -25z
m3058 9 c6 3 13 0 15 -6 3 -8 6 -6 6 5 1 17 26 24 35 9 10 -17 26 -140 20
-156 -12 -31 -22 -16 -37 57 l-16 72 5 -60 c3 -32 8 -67 9 -77 7 -35 -24 -18
-34 20 -17 63 -31 126 -31 142 0 12 2 13 9 1 5 -7 13 -11 19 -7z m-3138 -39
c20 -24 6 -28 -15 -5 -10 11 -13 20 -8 20 6 0 16 -7 23 -15z m87 -17 c-3 -7
-5 -2 -5 12 0 14 2 19 5 13 2 -7 2 -19 0 -25z m-533 -57 c-8 -9 -22 12 -17 26
6 15 7 14 13 -3 4 -10 6 -21 4 -23z m76 7 c0 -4 -7 -8 -15 -8 -8 0 -15 4 -15
8 0 5 7 9 15 9 8 0 15 -4 15 -9z m-213 -20 c-3 -8 -6 -5 -6 6 -1 11 2 17 5 13
3 -3 4 -12 1 -19z m1436 7 c-3 -9 -8 -14 -10 -11 -3 3 -2 9 2 15 9 16 15 13 8
-4z m-1776 -50 c-7 -14 -20 -28 -29 -31 -10 -3 -18 -10 -18 -15 0 -5 -7 -9
-15 -9 -25 0 -17 19 18 40 17 11 33 24 33 30 3 19 4 21 13 16 5 -4 4 -17 -2
-31z m1773 -11 c0 -8 -5 -12 -10 -9 -6 4 -8 11 -5 16 9 14 15 11 15 -7z m47
-166 c-3 -8 -6 -5 -6 6 -1 11 2 17 5 13 3 -3 4 -12 1 -19z m947 -110 c4 -35 9
-79 12 -98 l6 -35 -51 3 c-28 2 -51 8 -51 13 0 5 -18 9 -39 9 -22 0 -41 5 -43
11 -3 8 -27 9 -80 4 -63 -6 -78 -11 -87 -29 -11 -20 -11 -20 -6 4 3 14 8 40
12 58 5 30 9 32 44 32 27 0 39 4 39 14 0 16 64 41 79 32 12 -8 81 22 81 34 0
6 17 10 39 10 l38 0 7 -62z m-450 -88 c3 -19 8 -51 11 -70 5 -32 5 -33 -5 -10
-12 26 -40 183 -39 210 1 18 27 -81 33 -130z m1617 48 c-11 -11 -13 -10 -6 0
4 8 -1 23 -11 35 -18 22 -18 22 6 0 20 -19 22 -25 11 -35z m-1501 16 c0 -8 -4
-12 -10 -9 -5 3 -10 10 -10 16 0 5 5 9 10 9 6 0 10 -7 10 -16z m-32 -74 c0
-37 -1 -41 -8 -20 -11 36 -11 112 0 85 5 -11 8 -40 8 -65z m1566 51 c3 -5 -1
-11 -9 -14 -9 -4 -12 -1 -8 9 6 16 10 17 17 5z m-162 -23 c-7 -7 -12 -8 -12
-2 0 14 12 26 19 19 2 -3 -1 -11 -7 -17z m95 2 c-1 -11 -5 -20 -9 -20 -4 0 -8
9 -8 20 0 11 4 20 9 20 6 0 9 -9 8 -20z m-78 -32 c-9 -17 -14 -19 -17 -8 -3 7
0 16 7 18 6 2 11 11 12 20 0 10 3 12 5 5 3 -7 0 -22 -7 -35z m-1898 12 c39 0
39 0 39 -38 0 -39 0 -39 55 -52 30 -7 55 -17 55 -22 0 -8 -16 -12 -34 -9 -4 1
-16 -7 -26 -19 -9 -11 -23 -20 -29 -20 -6 0 -33 -11 -59 -23 -26 -13 -99 -43
-162 -67 -98 -36 -135 -50 -172 -67 -3 -2 -6 17 -6 42 1 25 5 45 10 45 5 0 6
-4 3 -10 -3 -6 1 -7 9 -4 9 3 14 9 11 13 -6 11 24 51 38 51 15 0 57 61 57 82
0 9 6 23 14 30 8 8 16 23 19 34 4 16 5 16 6 -4 1 -29 21 -19 22 11 1 21 1 20
12 -4 11 -24 13 -25 30 -9 9 9 17 22 17 28 0 13 20 22 38 16 8 -2 31 -4 53 -4z
m-1176 -60 c13 -5 14 -9 5 -9 -8 0 -24 4 -35 9 -13 5 -14 9 -5 9 8 0 24 -4 35
-9z m420 -150 c19 -11 38 -20 43 -19 4 0 11 -20 15 -44 7 -34 14 -46 35 -55
l27 -11 -30 6 c-41 8 -45 11 -45 35 0 12 -20 40 -45 65 -51 48 -51 52 0 23z
m3232 -182 c-3 -7 -5 -2 -5 12 0 14 2 19 5 13 2 -7 2 -19 0 -25z m-3307 -12
c0 -2 -7 -6 -15 -10 -8 -3 -15 -1 -15 4 0 6 7 10 15 10 8 0 15 -2 15 -4z
m3317 -38 c-3 -7 -5 -2 -5 12 0 14 2 19 5 13 2 -7 2 -19 0 -25z m-4596 12 c11
0 12 -60 1 -76 -9 -14 -252 -28 -252 -14 0 5 18 13 40 16 22 4 40 10 40 15 0
5 13 9 29 9 16 0 36 6 43 13 28 27 63 47 76 42 8 -3 18 -5 23 -5z m4606 -62
c-3 -7 -5 -2 -5 12 0 14 2 19 5 13 2 -7 2 -19 0 -25z m-3612 -38 c-3 -5 -12
-10 -18 -10 -7 0 -6 4 3 10 19 12 23 12 15 0z m1652 -47 c-3 -10 -5 -4 -5 12
0 17 2 24 5 18 2 -7 2 -21 0 -30z m1980 -25 c-3 -8 -6 -5 -6 6 -1 11 2 17 5
13 3 -3 4 -12 1 -19z m-1970 -30 c-3 -7 -5 -2 -5 12 0 14 2 19 5 13 2 -7 2
-19 0 -25z m1720 6 c-3 -3 -12 -4 -19 -1 -8 3 -5 6 6 6 11 1 17 -2 13 -5z
m-194 -31 c-7 -2 -19 -2 -25 0 -7 3 -2 5 12 5 14 0 19 -2 13 -5z m-1516 -25
c-3 -8 -6 -5 -6 6 -1 11 2 17 5 13 3 -3 4 -12 1 -19z m1460 16 c-3 -3 -12 -4
-19 -1 -8 3 -5 6 6 6 11 1 17 -2 13 -5z m-2809 -11 c-10 -2 -26 -2 -35 0 -10
3 -2 5 17 5 19 0 27 -2 18 -5z m2749 1 c-3 -3 -12 -4 -19 -1 -8 3 -5 6 6 6 11
1 17 -2 13 -5z m-1390 -56 c-3 -8 -6 -5 -6 6 -1 11 2 17 5 13 3 -3 4 -12 1
-19z m10 -60 c-3 -8 -6 -5 -6 6 -1 11 2 17 5 13 3 -3 4 -12 1 -19z m-1406
-186 c-6 -2 -11 -13 -11 -24 0 -12 -3 -19 -6 -15 -3 3 -3 25 1 49 7 40 8 41
17 18 6 -16 5 -26 -1 -28z m-614 -239 c-2 -21 -4 -6 -4 32 0 39 2 55 4 38 2
-18 2 -50 0 -70z m-2520 -60 c-3 -10 -5 -4 -5 12 0 17 2 24 5 18 2 -7 2 -21 0
-30z m2520 -35 c-3 -7 -5 -2 -5 12 0 14 2 19 5 13 2 -7 2 -19 0 -25z m-1237
-28 c0 -6 -8 -14 -17 -17 -24 -9 -47 -33 -39 -40 3 -3 15 -11 28 -17 38 -19
34 -36 -9 -36 -28 0 -34 3 -23 10 20 13 12 12 -34 -4 -31 -10 -40 -19 -42 -40
-1 -14 2 -26 7 -26 5 0 9 -5 9 -10 0 -6 17 -36 38 -68 36 -53 80 -139 115
-223 12 -28 13 -39 4 -49 -9 -10 -9 -11 2 -5 9 5 12 3 9 -6 -3 -9 -17 -13 -42
-11 -32 3 -36 0 -37 -20 0 -23 0 -23 -11 2 l-11 25 -6 -29 c-3 -17 -9 -29 -13
-28 -5 1 -12 2 -18 2 -5 0 -21 18 -36 41 -29 47 -45 45 -22 -3 18 -38 34 -75
43 -102 6 -19 5 -19 -14 -2 -11 10 -25 15 -30 11 -6 -3 -11 -1 -11 5 0 6 -10
10 -22 8 -17 -2 -24 -13 -33 -51 -8 -37 -16 -51 -39 -62 -35 -19 -41 -15 -68
43 -12 26 -35 65 -50 86 -15 21 -28 43 -28 47 0 8 -12 22 -95 108 -88 92 -187
132 -240 97 -21 -14 -24 -14 -19 -1 9 23 144 109 194 123 25 8 56 20 70 27
107 59 152 79 217 96 42 10 83 25 92 31 9 7 22 18 30 23 8 6 28 25 45 42 24
26 39 33 69 33 20 0 37 -5 37 -10z m2084 -61 c19 -15 26 -30 26 -54 0 -47 -29
-65 -102 -65 -39 0 -74 -7 -104 -22 -38 -18 -47 -19 -55 -7 -7 12 -9 12 -9 -1
0 -32 -112 -104 -194 -125 -92 -24 -135 -51 -156 -97 -13 -29 -29 -45 -56 -58
-22 -10 -59 -37 -84 -60 -134 -125 -140 -135 -94 -146 14 -4 63 -2 109 5 89
12 110 9 126 -20 5 -11 15 -19 21 -19 6 0 16 -7 22 -16 11 -14 30 -13 196 12
102 14 253 30 335 35 83 5 169 12 192 15 38 5 46 3 73 -24 35 -35 39 -62 10
-62 -12 0 -26 12 -35 30 -9 17 -20 28 -26 25 -5 -4 -7 -11 -4 -16 6 -8 -1 -10
-46 -13 -9 -1 -25 -9 -35 -18 -32 -29 -76 -39 -154 -37 -41 1 -100 -3 -130 -9
-30 -5 -58 -8 -61 -6 -4 2 -10 -3 -13 -12 -4 -9 -13 -14 -21 -10 -8 3 -15 2
-15 -3 0 -14 -89 -43 -245 -81 -120 -29 -212 -59 -258 -84 -67 -38 -364 -327
-407 -396 -5 -8 -10 -11 -10 -7 0 5 -5 5 -11 2 -7 -5 -4 -14 7 -26 9 -11 14
-22 11 -26 -4 -3 -7 -1 -7 6 0 7 -5 9 -10 6 -7 -4 -8 -24 -4 -51 7 -52 -2 -68
-53 -85 -29 -9 -37 -9 -45 2 -7 10 -8 7 -4 -11 5 -24 4 -24 -9 -6 -15 20 -15
20 -31 0 -15 -18 -15 -18 -10 0 5 14 2 17 -9 12 -10 -3 -27 4 -43 19 -15 14
-36 25 -47 25 -20 -1 -20 -1 1 -18 25 -21 58 -81 50 -90 -4 -3 -15 4 -26 15
-39 43 -86 72 -135 85 -28 7 -56 18 -63 25 -16 15 -24 16 -74 4 -30 -7 -38 -6
-38 5 0 11 -5 12 -19 5 -15 -8 -21 -5 -31 15 -13 24 -10 28 87 127 55 56 132
140 170 187 80 97 261 290 313 335 47 40 120 117 120 126 0 4 -27 22 -61 40
-60 32 -189 158 -189 184 0 6 9 20 19 29 15 14 24 15 40 7 11 -7 31 -9 43 -6
24 6 60 -26 175 -154 l40 -44 74 55 c41 30 108 86 149 124 188 175 268 235
379 284 58 25 124 58 147 72 64 41 185 87 230 87 27 1 50 -6 68 -20z m-2021
-6 c-7 -2 -19 -2 -25 0 -7 3 -2 5 12 5 14 0 19 -2 13 -5z m4915 -69 c14 -10
22 -11 22 -3 0 15 80 1 101 -18 15 -12 32 -84 54 -226 6 -37 6 -37 -27 -36
-58 3 -182 30 -206 45 -13 8 -27 25 -32 37 -13 32 -41 207 -35 216 7 12 96 1
123 -15z m-4868 -60 c0 -2 -9 -4 -20 -4 -11 0 -20 4 -20 9 0 5 9 7 20 4 11 -3
20 -7 20 -9z m50 6 c0 -5 -2 -10 -4 -10 -3 0 -8 5 -11 10 -3 6 -1 10 4 10 6 0
11 -4 11 -10z m1073 -118 c-3 -13 -21 -23 -55 -31 -28 -6 -53 -9 -56 -6 -3 3
-3 6 -1 8 43 25 105 54 110 51 4 -2 5 -12 2 -22z m-1045 -89 c-10 -2 -26 -2
-35 0 -10 3 -2 5 17 5 19 0 27 -2 18 -5z m-800 -28 c20 -14 42 -25 47 -25 11
0 47 -36 76 -75 14 -19 13 -19 -12 -3 -18 11 -30 13 -43 6 -10 -5 -38 -8 -62
-6 -36 2 -44 0 -42 -12 2 -8 16 -16 33 -18 17 -2 37 -6 45 -9 8 -3 18 -5 23
-5 4 1 7 -7 7 -19 0 -14 -5 -19 -14 -16 -8 3 -20 -1 -26 -9 -10 -11 -9 -14 4
-14 19 0 22 -16 4 -22 -12 -4 -21 -2 -99 21 -19 6 -49 11 -65 11 l-29 -1 24
-19 c13 -11 18 -20 11 -20 -14 0 3 -18 43 -43 16 -10 27 -21 24 -23 -7 -7 -57
18 -57 28 0 4 -7 8 -15 8 -7 0 -18 8 -24 18 -8 14 -12 15 -22 5 -7 -7 -23 -13
-36 -13 -13 0 -23 -4 -23 -10 0 -5 9 -10 20 -10 11 0 20 -5 20 -11 0 -7 -10
-9 -25 -5 -15 4 -37 0 -55 -9 -17 -9 -30 -11 -30 -6 0 6 9 15 20 21 11 6 20
15 20 20 0 19 -31 9 -57 -17 -14 -16 -30 -27 -36 -25 -6 2 -5 -4 3 -12 7 -9
18 -16 25 -16 17 0 38 -27 27 -34 -4 -3 -20 6 -35 19 l-26 25 -27 -25 c-28
-26 -40 -30 -48 -17 -3 5 15 28 39 52 25 24 45 49 45 56 0 7 7 15 16 18 8 3
12 10 9 16 -4 6 -15 2 -27 -10 -12 -11 -23 -18 -26 -16 -11 11 239 236 262
236 10 0 29 9 43 20 32 25 27 25 71 -5z m135 -240 c-3 -9 -8 -14 -10 -11 -3 3
-2 9 2 15 9 16 15 13 8 -4z m2797 -249 c0 -2 3 -11 6 -19 3 -8 -1 -17 -9 -20
-10 -4 -16 3 -20 19 -3 16 0 24 9 24 8 0 14 -2 14 -4z m-140 -79 c-32 -30
-112 -43 -130 -22 -9 11 -5 16 27 24 34 9 72 15 113 20 9 0 6 -7 -10 -22z
m-278 -48 c-21 -17 -123 -52 -176 -60 -34 -5 -81 -12 -105 -16 -31 -4 -42 -3
-37 5 3 6 1 14 -5 17 -19 13 23 31 111 49 128 26 204 33 212 21 4 -5 4 -13 0
-16z m-1010 -481 c-10 -22 -11 -21 -11 12 -1 26 2 31 11 22 8 -8 8 -17 0 -34z
m-684 -174 c-13 -25 -24 -41 -26 -35 -2 5 2 19 8 31 6 11 8 26 4 32 -4 6 -3 8
4 4 6 -3 13 -2 17 4 17 27 12 5 -7 -36z m-78 -87 l0 -38 -29 20 c-16 12 -34
21 -40 21 -6 0 -11 3 -11 6 0 10 22 48 39 67 15 18 16 18 28 -10 7 -15 12 -45
13 -66z m-160 -74 c0 -1 -14 -10 -31 -18 -29 -15 -30 -15 -20 2 5 10 19 19 30
19 12 0 21 -1 21 -3z m5388 -144 c19 -22 31 -46 29 -54 -3 -7 1 -19 9 -25 8
-7 14 -19 14 -26 0 -24 -26 -15 -39 14 -8 15 -17 34 -23 42 -5 8 -14 27 -21
43 -6 15 -15 27 -19 27 -4 0 -8 5 -8 10 0 22 27 8 58 -31z m-25 -53 c3 -8 1
-16 -5 -18 -8 -3 -7 -17 5 -46 9 -23 17 -48 17 -54 0 -21 -33 20 -36 44 -2 13
-6 38 -10 56 -5 25 -3 32 9 32 8 0 17 -6 20 -14z m100 -303 c-4 -10 -9 -11
-19 -2 -8 7 -14 7 -14 1 0 -10 20 -30 33 -31 4 -1 13 -1 21 -1 8 0 22 -8 31
-17 16 -16 16 -17 0 -30 -10 -7 -22 -10 -26 -7 -5 3 -9 -2 -9 -10 0 -11 9 -16
29 -16 38 0 49 -18 16 -26 -14 -3 -25 -12 -25 -19 0 -7 -11 -20 -25 -29 -23
-15 -24 -15 -18 1 4 9 2 14 -3 10 -5 -3 -16 9 -23 26 -8 18 -32 51 -54 75 -26
26 -36 42 -26 42 8 0 21 -6 28 -12 11 -11 11 -9 2 9 -6 12 -17 25 -23 30 -16
9 17 18 72 19 28 0 37 -3 33 -13z m-76 -108 c9 -25 -4 -29 -17 -6 -7 15 -7 21
0 21 6 0 13 -7 17 -15z m15 -102 c6 -7 6 -13 1 -13 -19 0 -29 22 -24 53 l6 32
3 -30 c2 -16 8 -36 14 -42z m-12 -88 c0 -5 -5 -3 -10 5 -5 8 -10 20 -10 25 0
6 5 3 10 -5 5 -8 10 -19 10 -25z m162 -290 c36 -43 65 -131 45 -137 -8 -3 -16
10 -58 97 -13 27 -30 56 -36 63 -18 19 -16 23 6 14 10 -4 30 -20 43 -37z m-24
-77 c14 -14 16 -38 4 -38 -5 0 -14 11 -20 25 -12 26 -4 33 16 13z m-8 -41 c18
-14 43 -67 35 -75 -6 -6 -29 21 -50 61 -16 29 -10 34 15 14z m-81 -99 c14 -17
25 -38 26 -47 1 -9 5 -24 9 -33 4 -9 6 -27 4 -40 -4 -20 -36 36 -96 165 -8 17
34 -16 57 -45z m-4 -137 c3 -20 8 -45 11 -56 4 -16 0 -14 -20 9 -13 16 -27 41
-30 56 -3 15 -8 41 -11 56 l-6 29 25 -29 c13 -16 27 -45 31 -65z m175 -33 c17
-18 34 -45 37 -61 3 -15 10 -30 14 -33 11 -7 12 -54 1 -54 -5 0 -14 12 -21 28
-41 87 -57 119 -70 135 -25 31 6 19 39 -15z m-10 -100 c24 -40 29 -132 6 -108
-18 20 -36 76 -36 111 0 37 6 36 30 -3z m210 -100 c45 -46 83 -128 72 -157 -8
-21 -9 -21 -26 16 -11 21 -24 47 -29 58 -6 11 -17 34 -25 50 -8 17 -22 38 -30
48 -27 30 5 18 38 -15z m10 -171 c0 -6 -7 -2 -15 9 -8 10 -14 30 -14 44 0 23
1 22 14 -9 8 -18 15 -38 15 -44z m10 -47 c0 -14 -14 -12 -28 2 -19 19 -14 30
8 18 11 -6 20 -15 20 -20z m-7790 -480 c0 -12 -52 -61 -59 -55 -4 5 48 65 56
65 2 0 3 -4 3 -10z m6650 -485 c6 -7 10 -37 8 -66 -3 -45 -7 -55 -28 -66 -42
-21 -64 3 -68 70 -2 47 0 57 18 70 23 16 53 13 70 -8z m238 -18 c2 -17 -7 -37
-28 -61 l-32 -36 36 0 c20 0 36 -4 36 -10 0 -5 -25 -10 -55 -10 -30 0 -55 3
-55 8 0 4 16 25 35 47 19 22 35 48 35 57 0 22 -35 24 -44 3 -8 -21 -28 -19
-24 2 4 24 46 43 72 34 12 -5 22 -19 24 -34z m130 15 c6 -9 12 -34 12 -57 0
-59 -20 -80 -72 -76 -22 1 -41 61 -33 104 10 53 61 68 93 29z m-888 -57 c0
-60 -3 -75 -15 -75 -12 0 -15 13 -15 55 0 48 -2 55 -20 55 -23 0 -17 27 8 33
41 11 42 9 42 -68z m150 30 c0 -25 5 -45 10 -45 6 0 10 -7 10 -15 0 -8 -4 -15
-10 -15 -5 0 -10 -7 -10 -15 0 -8 -7 -15 -15 -15 -8 0 -15 7 -15 15 0 10 -10
15 -30 15 -38 0 -38 12 0 73 39 61 60 62 60 2z m110 38 c0 -22 -53 -163 -61
-163 -13 0 -12 6 17 92 14 43 30 78 35 78 5 0 9 -3 9 -7z m110 -68 c0 -60 -3
-75 -15 -75 -12 0 -15 13 -15 61 0 56 -2 60 -20 54 -28 -9 -26 13 3 25 44 18
47 14 47 -65z m260 72 c0 -6 -52 -152 -57 -160 -2 -4 -8 -5 -13 -2 -5 3 2 36
16 73 14 37 27 73 29 80 4 10 25 18 25 9z m398 -29 c2 -18 -7 -37 -28 -62
l-32 -36 36 0 c20 0 36 -4 36 -10 0 -5 -25 -10 -55 -10 -30 0 -55 3 -55 6 0 3
16 24 35 47 39 45 46 77 16 77 -10 0 -21 -7 -25 -15 -7 -18 -26 -20 -26 -2 0
24 24 38 60 35 30 -3 35 -7 38 -30z m132 11 c8 -15 8 -24 0 -34 -8 -10 -8 -19
2 -34 9 -16 10 -26 2 -39 -15 -23 -77 -28 -94 -7 -18 22 -5 31 24 16 13 -8 29
-10 35 -7 18 11 13 33 -9 39 -11 3 -20 10 -20 15 0 5 9 12 20 15 11 3 20 10
20 16 0 17 -30 25 -43 12 -6 -6 -17 -11 -24 -11 -11 0 -11 5 -3 20 15 28 75
28 90 -1z m250 -54 c0 -60 -3 -75 -15 -75 -12 0 -15 13 -15 59 0 54 -2 59 -20
54 -28 -7 -25 15 3 27 44 18 47 14 47 -65z m140 65 c0 -5 -6 -10 -14 -10 -7 0
-19 -7 -26 -15 -10 -13 -9 -15 12 -15 31 0 48 -17 48 -50 0 -14 -5 -31 -12
-38 -19 -19 -66 -15 -78 7 -17 33 -12 89 10 111 21 21 60 27 60 10z m218 -25
c2 -22 -4 -37 -23 -55 -33 -31 -32 -40 5 -40 17 0 30 -4 30 -10 0 -5 -25 -10
-55 -10 -30 0 -55 3 -55 6 0 4 16 24 35 45 36 40 46 79 20 79 -7 0 -18 -8 -24
-17 -8 -14 -12 -15 -22 -6 -21 21 8 45 50 41 32 -3 36 -6 39 -33z m132 16 c17
-32 12 -85 -10 -109 -21 -22 -60 -30 -60 -12 0 6 6 10 14 10 7 0 19 7 26 15
10 13 9 15 -12 15 -31 0 -48 17 -48 50 0 14 5 31 12 38 19 19 66 15 78 -7z
m-260 -32 c0 -5 -7 -9 -15 -9 -15 0 -20 12 -9 23 8 8 24 -1 24 -14z m0 -90 c0
-5 -7 -9 -15 -9 -15 0 -20 12 -9 23 8 8 24 -1 24 -14z"/>
<path d="M3680 7091 c0 -6 4 -13 10 -16 6 -3 7 1 4 9 -7 18 -14 21 -14 7z"/>
<path d="M4850 6504 c0 -8 5 -12 10 -9 6 3 10 10 10 16 0 5 -4 9 -10 9 -5 0
-10 -7 -10 -16z"/>
<path d="M2062 5075 c-17 -20 5 -20 24 0 12 11 12 15 2 15 -7 -1 -19 -7 -26
-15z"/>
<path d="M1906 4905 c4 -8 11 -15 16 -15 6 0 5 6 -2 15 -7 8 -14 15 -16 15 -2
0 -1 -7 2 -15z"/>
<path d="M1990 4813 c0 -6 7 -18 15 -27 8 -8 15 -17 15 -20 0 -12 52 -88 56
-83 3 3 -12 31 -33 63 -53 81 -53 81 -53 67z"/>
<path d="M4300 5041 c-17 -5 -21 -9 -12 -15 15 -9 52 1 52 15 0 10 -4 10 -40
0z"/>
<path d="M3410 4224 c-18 -8 -54 -35 -78 -59 -24 -25 -50 -45 -58 -45 -8 0
-14 -6 -14 -14 0 -20 30 -29 37 -11 3 9 10 14 17 13 13 -2 59 12 66 21 3 4 22
20 43 35 34 26 48 58 29 70 -4 2 -23 -2 -42 -10z"/>
<path d="M3065 3751 c-6 -11 9 -23 19 -14 9 9 7 23 -3 23 -6 0 -12 -4 -16 -9z"/>
<path d="M1648 4683 c7 -3 16 -2 19 1 4 3 -2 6 -13 5 -11 0 -14 -3 -6 -6z"/>
<path d="M1538 4593 c6 -2 18 -2 25 0 6 3 1 5 -13 5 -14 0 -19 -2 -12 -5z"/>
<path d="M1320 4559 c0 -5 5 -7 10 -4 6 3 10 8 10 11 0 2 -4 4 -10 4 -5 0 -10
-5 -10 -11z"/>
<path d="M1405 4530 c3 -5 13 -10 21 -10 8 0 14 5 14 10 0 6 -9 10 -21 10 -11
0 -17 -4 -14 -10z"/>
<path d="M6844 446 c-11 -28 0 -91 16 -91 11 0 16 14 18 53 2 42 0 52 -13 52
-9 0 -18 -6 -21 -14z"/>
<path d="M7207 433 c-8 -43 3 -85 22 -81 23 5 23 101 0 106 -11 2 -18 -6 -22
-25z"/>
<path d="M6487 416 c-4 -10 -5 -21 -2 -24 9 -9 17 6 13 25 -3 17 -4 17 -11 -1z"/>
<path d="M7884 396 c-9 -22 2 -46 21 -46 12 0 15 8 13 27 -3 30 -25 42 -34 19z"/>
<path d="M8220 430 c0 -25 4 -31 18 -28 11 2 17 12 17 28 0 16 -6 26 -17 28
-14 3 -18 -3 -18 -28z"/>
<path d="M6811 9444 c0 -11 3 -14 6 -6 3 7 2 16 -1 19 -3 4 -6 -2 -5 -13z"/>
<path d="M6821 9413 c0 -6 -4 -20 -7 -30 -5 -14 -4 -15 5 -7 7 7 11 20 8 30
-3 11 -5 14 -6 7z"/>
<path d="M6828 9343 c-3 -10 5 -63 18 -118 12 -55 22 -92 23 -81 1 21 -18 143
-27 166 -3 8 -4 23 -3 33 1 9 0 17 -2 17 -3 0 -7 -8 -9 -17z"/>
<path d="M6811 9124 c0 -11 3 -14 6 -6 3 7 2 16 -1 19 -3 4 -6 -2 -5 -13z"/>
<path d="M6822 9075 c0 -16 2 -22 5 -12 2 9 2 23 0 30 -3 6 -5 -1 -5 -18z"/>
<path d="M6881 8764 c0 -11 3 -14 6 -6 3 7 2 16 -1 19 -3 4 -6 -2 -5 -13z"/>
<path d="M3845 8750 c-4 -6 -1 -44 5 -86 6 -42 10 -78 7 -80 -2 -3 -10 30 -16
72 -12 84 -16 94 -36 94 -18 0 -23 -18 -20 -70 l3 -45 -11 47 c-15 58 -25 68
-43 44 -11 -16 -17 -17 -26 -8 -7 7 -18 12 -26 12 -12 0 -14 -13 -9 -67 4 -50
3 -60 -3 -38 -9 26 -17 63 -19 88 -2 13 -31 8 -37 -7 -5 -14 21 -185 30 -194
14 -13 35 11 39 45 l4 38 1 -37 c2 -33 5 -38 27 -38 22 0 25 4 25 33 0 17 -5
49 -11 70 -6 21 -8 44 -6 50 2 7 9 -15 16 -48 6 -33 14 -70 17 -82 4 -23 23
-27 36 -8 4 5 5 30 3 55 l-4 45 9 -43 c14 -67 33 -82 49 -39 8 19 10 20 16 5
4 -10 16 -18 26 -18 15 0 19 7 19 37 0 56 -21 167 -34 175 -15 10 -24 10 -31
-2z"/>
<path d="M3560 8695 c-10 -12 -10 -25 -2 -58 6 -23 14 -60 17 -82 8 -50 12
-56 30 -48 18 6 19 52 3 125 -14 66 -29 86 -48 63z"/>
<path d="M3504 8685 c-10 -25 17 -176 32 -182 25 -9 31 6 24 59 -16 113 -40
165 -56 123z"/>
<path d="M3387 8674 c-6 -7 -5 -15 14 -126 9 -58 14 -68 31 -68 19 0 20 4 14
53 -7 56 -36 147 -46 147 -4 0 -9 -3 -13 -6z"/>
<path d="M3441 8658 c0 -13 6 -54 12 -93 11 -62 15 -70 36 -73 23 -4 24 -2 17
40 -17 110 -29 148 -48 148 -12 0 -18 -7 -17 -22z"/>
<path d="M3338 8663 c-13 -3 -16 -12 -12 -36 24 -139 35 -170 54 -151 8 8 8
29 1 75 -6 35 -11 68 -11 72 0 5 -4 6 -9 3 -4 -3 -6 6 -3 19 2 14 3 24 1 24
-2 -1 -12 -3 -21 -6z"/>
<path d="M3267 8654 c-4 -4 19 -148 28 -171 8 -21 35 -15 35 8 0 70 -43 182
-63 163z"/>
<path d="M3214 8589 c9 -78 29 -129 52 -129 12 0 15 6 11 23 -3 12 -11 50 -18
85 -9 44 -19 67 -33 74 -18 10 -19 7 -12 -53z"/>
<path d="M3156 8631 c-8 -13 11 -126 27 -159 25 -52 36 31 14 105 -15 49 -31
71 -41 54z"/>
<path d="M3100 8593 c0 -54 22 -156 31 -142 6 10 9 11 9 2 0 -7 5 -13 11 -13
12 0 9 27 -14 128 -12 55 -37 72 -37 25z"/>
<path d="M2980 8577 c0 -20 5 -58 12 -86 9 -38 16 -51 30 -51 22 0 22 16 0 99
-19 73 -42 93 -42 38z"/>
<path d="M3038 8605 c-8 -9 24 -159 36 -167 22 -14 29 11 18 64 -18 89 -35
122 -54 103z"/>
<path d="M2925 8563 c2 -34 9 -68 21 -114 2 -9 12 -16 20 -16 14 0 15 9 11 49
-6 50 -33 118 -47 118 -5 0 -7 -17 -5 -37z"/>
<path d="M2872 8514 c10 -75 33 -112 44 -70 7 29 -25 136 -41 136 -8 0 -9 -18
-3 -66z"/>
<path d="M2802 8550 c0 -14 2 -19 5 -12 2 6 2 18 0 25 -3 6 -5 1 -5 -13z"/>
<path d="M2690 8551 c0 -5 5 -13 10 -16 6 -3 10 -2 10 4 0 5 -4 13 -10 16 -5
3 -10 2 -10 -4z"/>
<path d="M2752 8505 c10 -68 25 -108 37 -101 5 4 12 0 14 -6 3 -7 6 -1 6 13 1
37 -28 131 -39 124 -6 -4 -10 1 -10 9 0 9 -4 16 -8 16 -5 0 -5 -25 0 -55z"/>
<path d="M2818 8532 c-6 -21 5 -99 15 -109 4 -3 13 -3 21 0 13 5 13 13 1 58
-16 60 -30 79 -37 51z"/>
<path d="M2571 8504 c0 -11 3 -14 6 -6 3 7 2 16 -1 19 -3 4 -6 -2 -5 -13z"/>
<path d="M2642 8470 c12 -61 33 -95 43 -68 4 9 0 38 -9 64 -8 27 -15 43 -15
35 -1 -11 -5 -10 -15 4 -12 17 -13 13 -4 -35z"/>
<path d="M2697 8483 c3 -21 12 -49 20 -62 13 -20 17 -22 24 -9 5 9 4 30 -3 49
-22 67 -50 81 -41 22z"/>
<path d="M2521 8482 c-2 -26 24 -92 36 -92 15 0 16 35 3 65 l-9 20 -1 -20 c-1
-16 -4 -14 -15 10 -7 17 -14 24 -14 17z"/>
<path d="M2596 8472 c-8 -24 0 -79 13 -86 21 -13 25 13 10 59 -14 44 -17 47
-23 27z"/>
<path d="M2461 8472 c-2 -26 24 -92 36 -92 19 0 16 30 -4 53 -10 11 -13 17 -6
14 7 -5 9 0 6 14 -4 14 -8 17 -13 9 -6 -9 -9 -9 -13 1 -4 10 -6 11 -6 1z"/>
<path d="M2355 8442 c-7 -23 15 -76 33 -79 15 -4 15 0 0 32 -6 14 -15 25 -20
25 -5 0 -6 9 -3 20 3 11 4 20 1 20 -2 0 -7 -8 -11 -18z"/>
<path d="M2406 8440 c4 -14 18 -38 32 -55 14 -16 23 -22 19 -13 -3 9 -9 33
-13 53 -5 26 -9 33 -15 23 -7 -11 -11 -10 -20 2 -8 12 -9 9 -3 -10z"/>
<path d="M2296 8410 c8 -44 12 -50 31 -50 10 0 13 6 9 16 -3 9 -6 20 -6 25 0
6 -5 7 -10 4 -6 -3 -15 4 -20 17 -8 19 -9 17 -4 -12z"/>
<path d="M2250 8388 c0 -21 4 -38 9 -38 19 0 22 20 7 47 l-15 28 -1 -37z"/>
<path d="M2190 8390 c6 -11 8 -25 5 -30 -3 -5 -1 -11 5 -15 5 -3 10 3 10 14 0
27 -10 51 -21 51 -6 0 -5 -9 1 -20z"/>
<path d="M2131 8384 c0 -11 3 -14 6 -6 3 7 2 16 -1 19 -3 4 -6 -2 -5 -13z"/>
<path d="M2018 8340 c18 -32 27 -33 18 -2 -4 11 -13 23 -21 25 -10 5 -10 -1 3
-23z"/>
<path d="M2147 8363 c-4 -3 -7 -11 -7 -17 0 -6 5 -5 12 2 6 6 9 14 7 17 -3 3
-9 2 -12 -2z"/>
<path d="M2074 8344 c3 -9 6 -18 6 -20 0 -3 5 -2 10 1 16 10 12 35 -6 35 -11
0 -14 -5 -10 -16z"/>
<path d="M1790 8300 c0 -11 4 -20 9 -20 5 0 7 9 4 20 -3 11 -7 20 -9 20 -2 0
-4 -9 -4 -20z"/>
<path d="M1671 8274 c0 -11 3 -14 6 -6 3 7 2 16 -1 19 -3 4 -6 -2 -5 -13z"/>
<path d="M7400 8260 c-21 -7 -21 -8 -5 -9 11 0 27 4 35 9 18 11 5 11 -30 0z"/>
<path d="M7308 8233 c7 -3 16 -2 19 1 4 3 -2 6 -13 5 -11 0 -14 -3 -6 -6z"/>
<path d="M6764 8209 c-19 -22 -19 -22 4 -8 12 8 22 17 22 21 0 12 -6 9 -26
-13z"/>
<path d="M6784 8160 c-5 -5 -25 -11 -44 -13 -26 -3 -45 -16 -77 -53 -24 -27
-43 -51 -43 -55 0 -11 117 14 180 38 8 4 21 5 28 4 9 -1 11 6 6 26 -9 36 -37
66 -50 53z"/>
<path d="M400 8149 c0 -5 5 -7 10 -4 6 3 10 8 10 11 0 2 -4 4 -10 4 -5 0 -10
-5 -10 -11z"/>
<path d="M6624 8100 c-22 -9 -74 -65 -74 -81 0 -15 31 5 69 45 37 38 38 48 5
36z"/>
<path d="M6255 8053 c-16 -3 -35 -9 -42 -15 -7 -5 -17 -7 -22 -4 -5 4 -43 0
-83 -9 -40 -8 -86 -16 -103 -16 -24 -1 -25 -3 -7 -6 24 -5 31 -37 10 -47 -20
-9 78 4 185 25 54 10 109 19 122 19 29 0 38 13 30 40 -6 20 -22 23 -90 13z"/>
<path d="M7991 8024 c0 -11 3 -14 6 -6 3 7 2 16 -1 19 -3 4 -6 -2 -5 -13z"/>
<path d="M5531 7964 c0 -11 3 -14 6 -6 3 7 2 16 -1 19 -3 4 -6 -2 -5 -13z"/>
<path d="M6891 7854 c0 -11 3 -14 6 -6 3 7 2 16 -1 19 -3 4 -6 -2 -5 -13z"/>
<path d="M6857 7803 c-5 -4 -12 -8 -15 -9 -38 -3 -140 -33 -192 -56 -36 -16
-86 -32 -112 -35 -55 -7 -54 -6 -33 -103 8 -36 14 -79 15 -97 0 -28 3 -31 23
-27 12 3 69 4 127 3 58 -2 137 -2 177 -1 68 2 72 1 75 -20 2 -13 3 15 1 62 -2
94 -12 162 -23 170 -4 3 -13 31 -21 63 -8 32 -18 55 -22 50z"/>
<path d="M6491 7574 c0 -11 3 -14 6 -6 3 7 2 16 -1 19 -3 4 -6 -2 -5 -13z"/>
<path d="M4009 7513 c-1 -10 -2 -25 -3 -35 -1 -9 -4 -20 -8 -24 -5 -4 -8 -12
-8 -18 0 -6 7 -3 15 5 20 19 32 89 16 89 -6 0 -12 -8 -12 -17z"/>
<path d="M3870 7486 c0 -2 7 -7 16 -10 8 -3 12 -2 9 4 -6 10 -25 14 -25 6z"/>
<path d="M5638 7463 c5 -21 7 -23 10 -9 2 10 0 22 -6 28 -6 6 -7 0 -4 -19z"/>
<path d="M6531 7444 c0 -11 3 -14 6 -6 3 7 2 16 -1 19 -3 4 -6 -2 -5 -13z"/>
<path d="M3490 7430 c0 -6 -11 -10 -24 -10 -18 0 -26 -7 -31 -27 -7 -28 -7
-28 -16 -5 -4 12 -13 22 -19 22 -6 0 -8 -5 -5 -10 6 -10 -20 -7 -62 5 -7 2
-15 0 -18 -5 -4 -6 -1 -10 4 -10 6 0 11 -9 11 -20 0 -11 12 -27 26 -36 17 -12
21 -19 13 -24 -6 -4 -9 -12 -5 -18 3 -6 2 -13 -4 -17 -6 -3 -15 4 -20 17 l-11
23 5 -23 c5 -27 -21 -43 -35 -21 -7 12 -9 12 -9 0 0 -11 -3 -11 -15 -1 -19 16
-35 3 -38 -29 -1 -13 -8 -21 -19 -21 -13 0 -18 -8 -18 -25 0 -14 0 -28 -1 -32
-2 -18 20 -12 26 7 4 12 9 19 12 16 4 -3 12 -1 20 5 7 7 13 7 13 2 0 -6 11 -8
25 -5 16 3 25 11 25 23 0 22 -4 23 -31 8 -18 -9 -19 -8 -8 9 22 36 57 9 51
-40 -1 -3 4 -8 11 -11 9 -3 13 8 13 36 1 30 8 45 25 58 22 17 24 17 37 -2 20
-29 82 -20 82 13 0 13 -38 9 -43 -4 -3 -8 -6 -6 -6 5 -1 9 -7 17 -15 17 -8 0
-17 4 -21 10 -3 5 13 7 42 3 26 -3 50 -9 51 -14 6 -15 19 -10 24 9 4 15 -1 17
-36 15 -30 -2 -36 -1 -21 6 11 4 25 6 31 4 7 -2 15 1 19 6 3 6 10 9 15 6 5 -3
11 -1 15 5 4 6 -14 10 -49 10 -30 0 -58 5 -61 10 -6 10 19 14 65 10 21 -2 22
0 11 14 -8 9 -11 19 -7 23 3 3 6 1 6 -5 0 -7 5 -12 11 -12 6 0 9 5 7 12 -5 14
-48 31 -48 18z"/>
<path d="M3885 7420 c20 -22 79 -28 91 -8 5 8 -2 9 -23 5 -18 -3 -41 0 -58 9
-29 15 -29 15 -10 -6z"/>
<path d="M3556 7398 c2 -3 -2 -9 -8 -11 -7 -3 4 -4 25 -3 20 1 43 8 50 15 9 9
3 11 -30 9 -22 -2 -39 -6 -37 -10z"/>
<path d="M3648 7403 c7 -3 16 -2 19 1 4 3 -2 6 -13 5 -11 0 -14 -3 -6 -6z"/>
<path d="M6931 7394 c0 -11 3 -14 6 -6 3 7 2 16 -1 19 -3 4 -6 -2 -5 -13z"/>
<path d="M3630 7380 c0 -5 5 -10 10 -10 6 0 10 5 10 10 0 6 -4 10 -10 10 -5 0
-10 -4 -10 -10z"/>
<path d="M3599 7368 c-8 -27 -5 -36 9 -30 10 4 12 7 4 10 -7 2 -10 8 -6 13 3
5 3 9 0 9 -3 0 -6 -1 -7 -2z"/>
<path d="M5221 7354 c0 -11 3 -14 6 -6 3 7 2 16 -1 19 -3 4 -6 -2 -5 -13z"/>
<path d="M3757 7335 c-4 -8 -2 -17 3 -20 6 -4 10 3 10 14 0 25 -6 27 -13 6z"/>
<path d="M4190 7340 c0 -5 -7 -6 -17 -3 -11 4 -14 3 -9 -5 4 -7 13 -12 21 -12
7 0 15 -6 18 -12 2 -7 4 -1 4 15 0 15 -3 27 -8 27 -5 0 -9 -4 -9 -10z"/>
<path d="M6941 7334 c0 -11 3 -14 6 -6 3 7 2 16 -1 19 -3 4 -6 -2 -5 -13z"/>
<path d="M3210 7328 c0 -4 7 -8 15 -8 8 0 15 -7 15 -17 0 -9 3 -14 6 -10 10
10 -6 44 -21 44 -8 0 -15 -4 -15 -9z"/>
<path d="M3290 7299 c0 -5 5 -7 10 -4 6 3 10 8 10 11 0 2 -4 4 -10 4 -5 0 -10
-5 -10 -11z"/>
<path d="M4431 7278 c0 -7 4 -22 9 -33 8 -18 9 -17 9 7 1 15 -3 30 -9 33 -5 3
-10 0 -9 -7z"/>
<path d="M4140 7269 c0 -5 5 -7 10 -4 6 3 10 8 10 11 0 2 -4 4 -10 4 -5 0 -10
-5 -10 -11z"/>
<path d="M3740 7220 c0 -5 5 -10 10 -10 6 0 10 5 10 10 0 6 -4 10 -10 10 -5 0
-10 -4 -10 -10z"/>
<path d="M2975 7081 c-3 -5 -1 -12 4 -15 5 -3 11 1 15 9 6 16 -9 21 -19 6z"/>
<path d="M2947 7020 c-3 -11 -1 -20 4 -20 5 0 9 9 9 20 0 11 -2 20 -4 20 -2 0
-6 -9 -9 -20z"/>
<path d="M2877 6889 c-4 -13 -4 -25 -2 -28 3 -2 5 2 5 10 0 11 2 11 10 -1 9
-13 10 -13 10 0 0 8 -4 21 -9 28 -6 10 -10 8 -14 -9z"/>
<path d="M2837 6774 c-4 -4 -7 -14 -7 -23 0 -11 3 -12 11 -4 6 6 10 16 7 23
-2 6 -7 8 -11 4z"/>
<path d="M2893 6565 c-7 -8 -13 -20 -13 -27 0 -9 -3 -9 -11 2 -9 13 -10 12 -5
-2 6 -21 -24 -78 -42 -78 -9 0 -11 -7 -7 -21 4 -12 3 -19 -1 -16 -5 3 -9 -6
-9 -19 0 -22 1 -23 12 -7 7 10 17 23 23 30 5 7 22 29 36 50 25 37 44 51 73 52
9 1 11 -6 8 -19 -4 -15 0 -20 14 -20 28 0 23 27 -10 61 -32 32 -50 36 -68 14z"/>
<path d="M3700 6540 c0 -5 5 -10 10 -10 6 0 10 5 10 10 0 6 -4 10 -10 10 -5 0
-10 -4 -10 -10z"/>
<path d="M2820 6499 c0 -5 5 -7 10 -4 6 3 10 8 10 11 0 2 -4 4 -10 4 -5 0 -10
-5 -10 -11z"/>
<path d="M3021 6400 c0 -37 2 -41 9 -22 6 13 6 31 0 45 -7 18 -9 14 -9 -23z"/>
<path d="M2843 6363 c-17 -35 -16 -43 2 -43 10 0 15 11 15 35 0 19 -1 35 -2
35 -2 0 -9 -12 -15 -27z"/>
<path d="M2894 6333 c-47 -9 18 -85 95 -111 42 -15 45 -12 36 28 -6 25 -9 29
-21 19 -17 -14 -18 -2 -4 35 9 24 7 25 -20 21 -17 -2 -30 1 -30 6 0 9 -17 10
-56 2z"/>
<path d="M2945 6190 c-3 -5 -1 -10 4 -10 6 0 11 5 11 10 0 6 -2 10 -4 10 -3 0
-8 -4 -11 -10z"/>
<path d="M3026 6185 c-3 -8 -1 -15 4 -15 6 0 10 7 10 15 0 8 -2 15 -4 15 -2 0
-6 -7 -10 -15z"/>
<path d="M2940 6060 c-9 -6 -9 -12 2 -31 34 -62 68 -77 88 -40 12 24 14 83 1
63 -7 -11 -14 -11 -43 1 -20 8 -41 11 -48 7z"/>
<path d="M3440 5975 c0 -8 5 -15 10 -15 6 0 10 7 10 15 0 8 -4 15 -10 15 -5 0
-10 -7 -10 -15z"/>
<path d="M4058 5903 c34 -2 90 -2 125 0 34 2 6 3 -63 3 -69 0 -97 -1 -62 -3z"/>
<path d="M2850 5206 c0 -2 7 -7 16 -10 8 -3 12 -2 9 4 -6 10 -25 14 -25 6z"/>
<path d="M2040 5170 c0 -5 5 -10 10 -10 6 0 10 5 10 10 0 6 -4 10 -10 10 -5 0
-10 -4 -10 -10z"/>
</g>
</svg>
